<?xml version="1.0" standalone="no"?>
<!DOCTYPE svg PUBLIC "-//W3C//DTD SVG 1.1//EN" "http://www.w3.org/Graphics/SVG/1.1/DTD/svg11.dtd">
<svg width="95mm" height="124mm" viewBox="-2 -122 95 124" xmlns="http://www.w3.org/2000/svg" version="1.1">
<title>OpenSCAD Model</title>
<path d="
M 91.0865,-68.8161 L 91.8624,-69.1376 L 92.1839,-69.9135 L 92.2197,-70 L 92.2197,-83.6555 L 90.8955,-83.6555
 L 90.691,-83.6989 L 90.5,-83.784 L 90.3309,-83.9069 L 90.191,-84.0622 L 90.0865,-84.2433 L 90.0219,-84.4421
 L 90,-84.65 L 90,-117.65 L 90.0219,-117.858 L 90.0865,-118.057 L 90.191,-118.238 L 90.3309,-118.393
 L 90.5,-118.516 L 90.691,-118.601 L 90.8955,-118.645 L 92.2197,-118.645 L 92.2197,-120.3 L 92.1839,-120.386
 L 91.8624,-121.162 L 91.0865,-121.484 L 91,-121.52 L 0,-121.52 L -0.0864746,-121.484 L -0.862449,-121.162
 L -1.18387,-120.386 L -1.21969,-120.3 L -1.21969,-70 L -1.18387,-69.9135 L -0.862449,-69.1376 L -0.0864746,-68.8161
 L 0,-68.7803 L 91,-68.7803 z
M 3.095,-112.442 L 2.12,-114.131 L 1.37,-115.43 L 2.12,-116.729 L 3.095,-118.418 L 6.545,-118.418
 L 7.52,-116.729 L 8.27,-115.43 L 7.52,-114.131 L 6.545,-112.442 z
M 74.215,-112.442 L 73.24,-114.131 L 72.49,-115.43 L 73.24,-116.729 L 74.215,-118.418 L 77.665,-118.418
 L 78.64,-116.729 L 79.39,-115.43 L 78.64,-114.131 L 77.665,-112.442 z
M 3.095,-71.8822 L 2.12,-73.571 L 1.37,-74.87 L 2.12,-76.169 L 3.095,-77.8578 L 6.545,-77.8578
 L 7.52,-76.169 L 8.27,-74.87 L 7.52,-73.571 L 6.545,-71.8822 z
M 74.215,-71.8822 L 73.24,-73.571 L 72.49,-74.87 L 73.24,-76.169 L 74.215,-77.8578 L 77.665,-77.8578
 L 78.64,-76.169 L 79.39,-74.87 L 78.64,-73.571 L 77.665,-71.8822 z
M 91.0865,1.18387 L 91.8624,0.862449 L 92.1839,0.0864746 L 92.2197,-0 L 92.2197,-50.3 L 92.1839,-50.3865
 L 91.8624,-51.1624 L 91.0865,-51.4839 L 91,-51.5197 L 0,-51.5197 L -0.0864746,-51.4839 L -0.862449,-51.1624
 L -1.18387,-50.3865 L -1.21969,-50.3 L -1.21969,-0 L -1.18387,0.0864746 L -0.862449,0.862449 L -0.0864746,1.18387
 L 0,1.21969 L 91,1.21969 z
M 4.49149,-42.3559 L 4.33505,-42.3682 L 4.18247,-42.4048 L 3.86205,-42.4817 L 3.5576,-42.6078 L 3.41263,-42.6679
 L 3.27884,-42.7499 L 2.99787,-42.922 L 2.87854,-43.024 L 2.62797,-43.238 L 2.41396,-43.4885 L 2.31205,-43.6079
 L 2.13987,-43.8888 L 2.05788,-44.0226 L 1.99783,-44.1676 L 1.87172,-44.472 L 1.7948,-44.7925 L 1.75817,-44.9451
 L 1.74585,-45.1015 L 1.72,-45.43 L 1.74585,-45.7585 L 1.75817,-45.9149 L 1.7948,-46.0675 L 1.87172,-46.388
 L 1.99783,-46.6924 L 2.05788,-46.8374 L 2.13987,-46.9712 L 2.31205,-47.2521 L 2.41396,-47.3715 L 2.62797,-47.622
 L 2.87854,-47.836 L 2.99787,-47.938 L 3.27884,-48.1101 L 3.41263,-48.1921 L 3.5576,-48.2522 L 3.86205,-48.3783
 L 4.18247,-48.4552 L 4.33505,-48.4918 L 4.49149,-48.5041 L 4.82,-48.53 L 5.14851,-48.5041 L 5.30495,-48.4918
 L 5.45753,-48.4552 L 5.77795,-48.3783 L 6.0824,-48.2522 L 6.22737,-48.1921 L 6.36116,-48.1101 L 6.64213,-47.938
 L 6.76146,-47.836 L 7.01203,-47.622 L 7.22604,-47.3715 L 7.32795,-47.2521 L 7.50013,-46.9712 L 7.58212,-46.8374
 L 7.64217,-46.6924 L 7.76828,-46.388 L 7.8452,-46.0675 L 7.88183,-45.9149 L 7.89415,-45.7585 L 7.92,-45.43
 L 7.89415,-45.1015 L 7.88183,-44.9451 L 7.8452,-44.7925 L 7.76828,-44.472 L 7.64217,-44.1676 L 7.58212,-44.0226
 L 7.50013,-43.8888 L 7.32795,-43.6079 L 7.22604,-43.4885 L 7.01203,-43.238 L 6.76146,-43.024 L 6.64213,-42.922
 L 6.36116,-42.7499 L 6.22737,-42.6679 L 6.0824,-42.6078 L 5.77795,-42.4817 L 5.45753,-42.4048 L 5.30495,-42.3682
 L 5.14851,-42.3559 L 4.82,-42.33 z
M 75.6115,-42.3559 L 75.4551,-42.3682 L 75.3025,-42.4048 L 74.982,-42.4817 L 74.6776,-42.6078 L 74.5326,-42.6679
 L 74.3988,-42.7499 L 74.1179,-42.922 L 73.9985,-43.024 L 73.748,-43.238 L 73.534,-43.4885 L 73.432,-43.6079
 L 73.2599,-43.8888 L 73.1779,-44.0226 L 73.1178,-44.1676 L 72.9917,-44.472 L 72.9148,-44.7925 L 72.8782,-44.9451
 L 72.8659,-45.1015 L 72.84,-45.43 L 72.8659,-45.7585 L 72.8782,-45.9149 L 72.9148,-46.0675 L 72.9917,-46.388
 L 73.1178,-46.6924 L 73.1779,-46.8374 L 73.2599,-46.9712 L 73.432,-47.2521 L 73.534,-47.3715 L 73.748,-47.622
 L 73.9985,-47.836 L 74.1179,-47.938 L 74.3988,-48.1101 L 74.5326,-48.1921 L 74.6776,-48.2522 L 74.982,-48.3783
 L 75.3025,-48.4552 L 75.4551,-48.4918 L 75.6115,-48.5041 L 75.94,-48.53 L 76.2685,-48.5041 L 76.4249,-48.4918
 L 76.5775,-48.4552 L 76.898,-48.3783 L 77.2024,-48.2522 L 77.3474,-48.1921 L 77.4812,-48.1101 L 77.7621,-47.938
 L 77.8815,-47.836 L 78.132,-47.622 L 78.346,-47.3715 L 78.448,-47.2521 L 78.6201,-46.9712 L 78.7021,-46.8374
 L 78.7622,-46.6924 L 78.8883,-46.388 L 78.9652,-46.0675 L 79.0018,-45.9149 L 79.0141,-45.7585 L 79.04,-45.43
 L 79.0141,-45.1015 L 79.0018,-44.9451 L 78.9652,-44.7925 L 78.8883,-44.472 L 78.7622,-44.1676 L 78.7021,-44.0226
 L 78.6201,-43.8888 L 78.448,-43.6079 L 78.346,-43.4885 L 78.132,-43.238 L 77.8815,-43.024 L 77.7621,-42.922
 L 77.4812,-42.7499 L 77.3474,-42.6679 L 77.2024,-42.6078 L 76.898,-42.4817 L 76.5775,-42.4048 L 76.4249,-42.3682
 L 76.2685,-42.3559 L 75.94,-42.33 z
M 68.382,-43.6034 L 67.8244,-43.8875 L 67.382,-44.33 L 67.0979,-44.8875 L 67,-45.5056 L 67,-45.6944
 L 67.0979,-46.3125 L 67.382,-46.87 L 67.8244,-47.3125 L 68.382,-47.5966 L 69,-47.6944 L 69.618,-47.5966
 L 70.1756,-47.3125 L 70.618,-46.87 L 70.9021,-46.3125 L 71,-45.6944 L 71,-45.5056 L 70.9021,-44.8875
 L 70.618,-44.33 L 70.1756,-43.8875 L 69.618,-43.6034 L 69,-43.5056 z
M 4.49149,-1.79585 L 4.33505,-1.80817 L 4.18247,-1.8448 L 3.86205,-1.92172 L 3.5576,-2.04783 L 3.41263,-2.10788
 L 3.27884,-2.18987 L 2.99787,-2.36205 L 2.87854,-2.46396 L 2.62797,-2.67797 L 2.41396,-2.92854 L 2.31205,-3.04787
 L 2.13987,-3.32884 L 2.05788,-3.46263 L 1.99783,-3.6076 L 1.87172,-3.91205 L 1.7948,-4.23247 L 1.75817,-4.38505
 L 1.74585,-4.54149 L 1.72,-4.87 L 1.74585,-5.19851 L 1.75817,-5.35495 L 1.7948,-5.50753 L 1.87172,-5.82795
 L 1.99783,-6.1324 L 2.05788,-6.27737 L 2.13987,-6.41116 L 2.31205,-6.69213 L 2.41396,-6.81146 L 2.62797,-7.06203
 L 2.87854,-7.27604 L 2.99787,-7.37795 L 3.27884,-7.55013 L 3.41263,-7.63212 L 3.5576,-7.69217 L 3.86205,-7.81828
 L 4.18247,-7.8952 L 4.33505,-7.93183 L 4.49149,-7.94415 L 4.82,-7.97 L 5.14851,-7.94415 L 5.30495,-7.93183
 L 5.45753,-7.8952 L 5.77795,-7.81828 L 6.0824,-7.69217 L 6.22737,-7.63212 L 6.36116,-7.55013 L 6.64213,-7.37795
 L 6.76146,-7.27604 L 7.01203,-7.06203 L 7.22604,-6.81146 L 7.32795,-6.69213 L 7.50013,-6.41116 L 7.58212,-6.27737
 L 7.64217,-6.1324 L 7.76828,-5.82795 L 7.8452,-5.50753 L 7.88183,-5.35495 L 7.89415,-5.19851 L 7.92,-4.87
 L 7.89415,-4.54149 L 7.88183,-4.38505 L 7.8452,-4.23247 L 7.76828,-3.91205 L 7.64217,-3.6076 L 7.58212,-3.46263
 L 7.50013,-3.32884 L 7.32795,-3.04787 L 7.22604,-2.92854 L 7.01203,-2.67797 L 6.76146,-2.46396 L 6.64213,-2.36205
 L 6.36116,-2.18987 L 6.22737,-2.10788 L 6.0824,-2.04783 L 5.77795,-1.92172 L 5.45753,-1.8448 L 5.30495,-1.80817
 L 5.14851,-1.79585 L 4.82,-1.77 z
M 75.6115,-1.79585 L 75.4551,-1.80817 L 75.3025,-1.8448 L 74.982,-1.92172 L 74.6776,-2.04783 L 74.5326,-2.10788
 L 74.3988,-2.18987 L 74.1179,-2.36205 L 73.9985,-2.46396 L 73.748,-2.67797 L 73.534,-2.92854 L 73.432,-3.04787
 L 73.2599,-3.32884 L 73.1779,-3.46263 L 73.1178,-3.6076 L 72.9917,-3.91205 L 72.9148,-4.23247 L 72.8782,-4.38505
 L 72.8659,-4.54149 L 72.84,-4.87 L 72.8659,-5.19851 L 72.8782,-5.35495 L 72.9148,-5.50753 L 72.9917,-5.82795
 L 73.1178,-6.1324 L 73.1779,-6.27737 L 73.2599,-6.41116 L 73.432,-6.69213 L 73.534,-6.81146 L 73.748,-7.06203
 L 73.9985,-7.27604 L 74.1179,-7.37795 L 74.3988,-7.55013 L 74.5326,-7.63212 L 74.6776,-7.69217 L 74.982,-7.81828
 L 75.3025,-7.8952 L 75.4551,-7.93183 L 75.6115,-7.94415 L 75.94,-7.97 L 76.2685,-7.94415 L 76.4249,-7.93183
 L 76.5775,-7.8952 L 76.898,-7.81828 L 77.2024,-7.69217 L 77.3474,-7.63212 L 77.4812,-7.55013 L 77.7621,-7.37795
 L 77.8815,-7.27604 L 78.132,-7.06203 L 78.346,-6.81146 L 78.448,-6.69213 L 78.6201,-6.41116 L 78.7021,-6.27737
 L 78.7622,-6.1324 L 78.8883,-5.82795 L 78.9652,-5.50753 L 79.0018,-5.35495 L 79.0141,-5.19851 L 79.04,-4.87
 L 79.0141,-4.54149 L 79.0018,-4.38505 L 78.9652,-4.23247 L 78.8883,-3.91205 L 78.7622,-3.6076 L 78.7021,-3.46263
 L 78.6201,-3.32884 L 78.448,-3.04787 L 78.346,-2.92854 L 78.132,-2.67797 L 77.8815,-2.46396 L 77.7621,-2.36205
 L 77.4812,-2.18987 L 77.3474,-2.10788 L 77.2024,-2.04783 L 76.898,-1.92172 L 76.5775,-1.8448 L 76.4249,-1.80817
 L 76.2685,-1.79585 L 75.94,-1.77 z
M 48.382,-3.00344 L 47.8244,-3.28752 L 47.382,-3.72998 L 47.0979,-4.28752 L 47,-4.90556 L 47,-5.09444
 L 47.0979,-5.71248 L 47.382,-6.27001 L 47.8244,-6.71248 L 48.382,-6.99656 L 49,-7.09444 L 49.618,-6.99656
 L 50.1756,-6.71248 L 50.618,-6.27001 L 50.9021,-5.71248 L 51,-5.09444 L 51,-4.90556 L 50.9021,-4.28752
 L 50.618,-3.72998 L 50.1756,-3.28752 L 49.618,-3.00344 L 49,-2.90556 z
M 53.382,-3.00344 L 52.8244,-3.28752 L 52.382,-3.72998 L 52.0979,-4.28752 L 52,-4.90556 L 52,-5.09444
 L 52.0979,-5.71248 L 52.382,-6.27001 L 52.8244,-6.71248 L 53.382,-6.99656 L 54,-7.09444 L 54.618,-6.99656
 L 55.1756,-6.71248 L 55.618,-6.27001 L 55.9021,-5.71248 L 56,-5.09444 L 56,-4.90556 L 55.9021,-4.28752
 L 55.618,-3.72998 L 55.1756,-3.28752 L 54.618,-3.00344 L 54,-2.90556 z
M 58.382,-3.00344 L 57.8244,-3.28752 L 57.382,-3.72998 L 57.0979,-4.28752 L 57,-4.90556 L 57,-5.09444
 L 57.0979,-5.71248 L 57.382,-6.27001 L 57.8244,-6.71248 L 58.382,-6.99656 L 59,-7.09444 L 59.618,-6.99656
 L 60.1756,-6.71248 L 60.618,-6.27001 L 60.9021,-5.71248 L 61,-5.09444 L 61,-4.90556 L 60.9021,-4.28752
 L 60.618,-3.72998 L 60.1756,-3.28752 L 59.618,-3.00344 L 59,-2.90556 z
M 63.382,-3.00344 L 62.8244,-3.28752 L 62.382,-3.72998 L 62.0979,-4.28752 L 62,-4.90556 L 62,-5.09444
 L 62.0979,-5.71248 L 62.382,-6.27001 L 62.8244,-6.71248 L 63.382,-6.99656 L 64,-7.09444 L 64.618,-6.99656
 L 65.1756,-6.71248 L 65.618,-6.27001 L 65.9021,-5.71248 L 66,-5.09444 L 66,-4.90556 L 65.9021,-4.28752
 L 65.618,-3.72998 L 65.1756,-3.28752 L 64.618,-3.00344 L 64,-2.90556 z
M 68.382,-3.00344 L 67.8244,-3.28752 L 67.382,-3.72998 L 67.0979,-4.28752 L 67,-4.90556 L 67,-5.09444
 L 67.0979,-5.71248 L 67.382,-6.27001 L 67.8244,-6.71248 L 68.382,-6.99656 L 69,-7.09444 L 69.618,-6.99656
 L 70.1756,-6.71248 L 70.618,-6.27001 L 70.9021,-5.71248 L 71,-5.09444 L 71,-4.90556 L 70.9021,-4.28752
 L 70.618,-3.72998 L 70.1756,-3.28752 L 69.618,-3.00344 L 69,-2.90556 z
" stroke="black" fill="lightgray" stroke-width="0.5"/>
</svg>
